<svg width="157" height="46" viewBox="0 0 157 46" fill="none" xmlns="http://www.w3.org/2000/svg">
<path d="M60.903 2.47547H54.467V6.24856H56.748C57.453 6.2334 58.1564 6.32343 58.8349 6.51568C59.356 6.66344 59.8426 6.91312 60.2665 7.25026C60.6258 7.54498 60.9074 7.92332 61.0866 8.35214C61.264 8.79095 61.3533 9.26036 61.3496 9.73365C61.3579 10.2914 61.2535 10.845 61.0428 11.3614C60.8429 11.8417 60.536 12.2699 60.1454 12.6136C59.7229 12.9759 59.2297 13.2467 58.6971 13.4087C58.0628 13.601 57.4024 13.6939 56.7396 13.6841H52.3801V0.839355H60.903V2.47547ZM54.467 7.90137V12.0355H56.7396C57.1418 12.0448 57.5431 11.992 57.9292 11.879C58.2233 11.7935 58.4949 11.6438 58.7243 11.4407C58.9219 11.2595 59.0729 11.0333 59.1646 10.7813C59.2598 10.5134 59.3064 10.2307 59.3023 9.94651C59.3071 9.65304 59.2619 9.36089 59.1688 9.08254C59.0847 8.83134 58.934 8.60772 58.7326 8.43561C58.5026 8.24161 58.2336 8.09928 57.9438 8.01823C57.5551 7.91591 57.154 7.86815 56.7521 7.87633L54.467 7.90137Z" fill="black"/>
<path d="M71.1762 4.59521V13.6836H69.2584V6.0769H66.727C66.6711 7.06146 66.5624 8.04231 66.4015 9.01523C66.2834 9.72365 66.109 10.4215 65.8797 11.1021C65.7151 11.5951 65.4841 12.0634 65.1931 12.4941C64.9776 12.8119 64.7094 13.0907 64.4001 13.3184C64.1418 13.5051 63.8488 13.6385 63.5383 13.7107C63.247 13.7755 62.9497 13.8084 62.6513 13.8088C62.0753 13.8088 61.7874 13.7128 61.7874 13.5229V12.3167H62.2861C62.4904 12.3161 62.6933 12.283 62.8871 12.2186C63.1143 12.1401 63.3186 12.0068 63.4819 11.8304C63.7056 11.5887 63.8901 11.3133 64.0287 11.0145C64.2371 10.5706 64.3987 10.1062 64.5107 9.62878C64.6774 8.94103 64.8042 8.24425 64.8905 7.54189C64.9977 6.71966 65.0805 5.73744 65.1389 4.59521H71.1762Z" fill="black"/>
<path d="M73.5117 13.6919V4.59513H75.4296V10.2923C75.4296 10.4238 75.4296 10.5636 75.4066 10.7097C75.3837 10.8558 75.3732 11.0144 75.3482 11.1688C75.4483 10.9317 75.5706 10.7047 75.7134 10.4906C75.7134 10.4906 75.7823 10.3925 75.9012 10.2339L76.3603 9.60782C76.5481 9.35322 76.7568 9.06384 76.9864 8.73968C77.2201 8.41621 77.4601 8.0844 77.7022 7.74424C78.2796 6.95539 78.9307 6.0643 79.6555 5.07094C79.7323 4.94562 79.8288 4.83356 79.9414 4.73913C80.0522 4.64192 80.1947 4.58849 80.3421 4.58887H81.5024V13.6835H79.5929V7.98632C79.5929 7.86667 79.5992 7.73311 79.6117 7.58563C79.6221 7.43538 79.6409 7.28512 79.6639 7.13069C79.6054 7.26008 79.5449 7.38112 79.4865 7.49172C79.4323 7.59181 79.3724 7.68866 79.307 7.7818C79.2966 7.7818 79.2319 7.87988 79.115 8.04475C78.9982 8.20961 78.8479 8.41621 78.6601 8.67081L78.034 9.53896C77.7961 9.86451 77.5561 10.1942 77.3119 10.5344C76.736 11.326 76.0876 12.2178 75.367 13.2098C75.2886 13.3315 75.193 13.4411 75.0832 13.5353C74.9726 13.6349 74.8291 13.6899 74.6804 13.6898L73.5117 13.6919Z" fill="black"/>
<path d="M83.2931 5.55164C83.6625 5.20996 84.092 4.93967 84.5599 4.75445C85.1319 4.53702 85.7407 4.43283 86.3525 4.44768C86.8534 4.44239 87.3522 4.51275 87.8321 4.65637C88.2203 4.76991 88.5854 4.95074 88.911 5.19061C89.1868 5.39559 89.4135 5.65934 89.5747 5.96276C89.724 6.24205 89.8021 6.55385 89.8021 6.87055C89.801 7.05627 89.7743 7.24094 89.7228 7.4194C89.665 7.61518 89.5762 7.80046 89.4599 7.96825C89.3271 8.15496 89.1667 8.32033 88.9841 8.45867C88.7619 8.62606 88.5137 8.75579 88.2495 8.84266C88.7475 8.99425 89.1924 9.28365 89.5329 9.67741C89.8505 10.0686 90.0158 10.5616 89.9983 11.0652C90.0055 11.4725 89.9024 11.8741 89.6999 12.2276C89.5004 12.5708 89.2301 12.8674 88.9069 13.0978C88.5607 13.3436 88.1745 13.5272 87.7653 13.6404C87.3292 13.7661 86.8774 13.8294 86.4235 13.8282C86.1318 13.8272 85.8407 13.8021 85.5532 13.7531C85.2481 13.7016 84.9494 13.6177 84.6621 13.5027C84.3623 13.3849 84.0766 13.2337 83.8107 13.0519C83.5324 12.8635 83.2828 12.6357 83.0698 12.3757L83.6228 11.6704C83.6586 11.6096 83.7104 11.5598 83.7727 11.5267C83.8349 11.4935 83.9051 11.4783 83.9755 11.4826C84.1084 11.4872 84.2363 11.534 84.3407 11.6161C84.466 11.7038 84.6141 11.8019 84.7832 11.9104C84.9778 12.0292 85.1841 12.1278 85.3988 12.2046C85.687 12.3016 85.9901 12.3468 86.2941 12.3382C86.5622 12.3421 86.8295 12.3062 87.0871 12.2318C87.3009 12.1687 87.5007 12.0653 87.6756 11.9271C87.8312 11.8043 87.9562 11.6472 88.0408 11.468C88.1252 11.2885 88.1679 11.0923 88.166 10.8941C88.1713 10.7053 88.1287 10.5183 88.0422 10.3504C87.9558 10.1826 87.8282 10.0394 87.6714 9.9341C87.3417 9.70037 86.8234 9.5835 86.1167 9.5835H85.0899V8.31676H86.1167C86.618 8.34587 87.1169 8.2284 87.5525 7.97869C87.7066 7.88922 87.8348 7.76116 87.9245 7.60711C88.0141 7.45306 88.0621 7.27833 88.0638 7.10011C88.0635 6.9357 88.0233 6.77381 87.9466 6.62839C87.8699 6.48298 87.759 6.35839 87.6234 6.26536C87.3285 6.03997 86.8868 5.92728 86.2982 5.92728C86.011 5.92119 85.7244 5.95562 85.4468 6.02954C85.2429 6.08583 85.0445 6.16057 84.8541 6.25283C84.6934 6.33214 84.5578 6.40518 84.4493 6.46152C84.363 6.51951 84.2629 6.55338 84.1592 6.55961C84.0801 6.56239 84.0017 6.5444 83.9317 6.50743C83.8455 6.45055 83.7739 6.37403 83.723 6.28414L83.2931 5.55164Z" fill="black"/>
<path d="M97.3315 5.10641C97.427 4.95037 97.5606 4.82112 97.7197 4.73078C97.8745 4.63885 98.051 4.58986 98.231 4.58887H99.7294L97.4985 8.00301C97.3751 8.20783 97.2249 8.39523 97.0519 8.56021C96.8877 8.70996 96.6934 8.82306 96.4822 8.89202C96.7494 8.96209 96.9976 9.09116 97.2084 9.26975C97.4166 9.45849 97.5928 9.6798 97.7301 9.92503L99.986 13.6814H98.6651C98.3917 13.6963 98.1194 13.6379 97.8762 13.5124C97.6782 13.3888 97.5145 13.2172 97.4004 13.0136L95.8561 10.3549C95.7463 10.1433 95.5754 9.96951 95.3657 9.85616C95.1536 9.74669 94.9177 9.69148 94.6791 9.69547H93.7838V13.6919H91.866V4.59513H93.7838V8.41412H94.5601C94.7776 8.42203 94.9934 8.37312 95.1862 8.27222C95.3634 8.16443 95.5105 8.0137 95.614 7.83397L97.3315 5.10641Z" fill="black"/>
<path d="M101.333 13.6919V4.59513H103.248V10.2923C103.248 10.4238 103.248 10.5636 103.227 10.7097C103.207 10.8558 103.192 11.0144 103.169 11.1688C103.268 10.9313 103.391 10.7042 103.534 10.4906C103.534 10.4906 103.603 10.3925 103.722 10.2339L104.181 9.60782C104.369 9.35322 104.578 9.06384 104.807 8.73968C105.043 8.41621 105.281 8.0844 105.525 7.74424C106.102 6.95539 106.754 6.0643 107.478 5.07094C107.556 4.94546 107.653 4.8334 107.766 4.73913C107.877 4.64192 108.02 4.58849 108.167 4.58887H109.325V13.6835H107.41V7.98632C107.41 7.86736 107.41 7.7338 107.426 7.58563C107.443 7.43747 107.458 7.28512 107.48 7.13069C107.422 7.26008 107.362 7.38112 107.301 7.49172C107.248 7.59219 107.189 7.68909 107.124 7.7818C107.111 7.7818 107.049 7.87988 106.932 8.04475C106.815 8.20961 106.665 8.41621 106.477 8.67081L105.851 9.53896C105.613 9.86451 105.373 10.1942 105.129 10.5344C104.551 11.326 103.903 12.2178 103.184 13.2098C103.105 13.331 103.009 13.4405 102.9 13.5353C102.789 13.6342 102.646 13.6891 102.497 13.6898L101.333 13.6919Z" fill="black"/>
<path d="M115.473 4.44812C116.003 4.44257 116.529 4.53453 117.025 4.71941C117.488 4.89247 117.908 5.16454 118.255 5.5166C118.611 5.8851 118.887 6.32452 119.062 6.8063C119.264 7.36173 119.363 7.94955 119.352 8.5405C119.37 8.74451 119.336 8.94967 119.254 9.13735C119.213 9.1915 119.159 9.23401 119.096 9.26072C119.033 9.28743 118.965 9.29741 118.897 9.28969H113.054C113.068 9.74653 113.149 10.1988 113.296 10.6316C113.414 10.9784 113.601 11.2979 113.845 11.5707C114.07 11.8196 114.351 12.0107 114.665 12.1279C115.006 12.2547 115.366 12.317 115.73 12.3115C116.058 12.3176 116.386 12.274 116.702 12.1821C116.948 12.1088 117.188 12.0146 117.418 11.9004C117.627 11.796 117.791 11.7021 117.935 11.6166C118.052 11.5379 118.187 11.4931 118.328 11.4872C118.397 11.4846 118.466 11.4995 118.529 11.5305C118.591 11.5615 118.645 11.6076 118.685 11.6646L119.227 12.3699C119.007 12.632 118.749 12.8599 118.461 13.0461C118.177 13.2314 117.871 13.3827 117.551 13.4968C117.231 13.6135 116.9 13.6974 116.562 13.7473C116.234 13.7965 115.903 13.8216 115.571 13.8224C114.972 13.8269 114.377 13.7178 113.818 13.501C113.289 13.2972 112.811 12.9794 112.418 12.5703C112.005 12.1328 111.689 11.6129 111.491 11.0448C111.257 10.3743 111.144 9.66785 111.155 8.95787C111.151 8.35645 111.252 7.75888 111.454 7.19237C111.642 6.66503 111.934 6.18049 112.311 5.76703C112.691 5.35632 113.152 5.02937 113.666 4.80706C114.236 4.56244 114.852 4.44017 115.473 4.44812ZM115.508 5.84842C115.209 5.83169 114.909 5.87597 114.627 5.97856C114.345 6.08115 114.087 6.23993 113.868 6.44527C113.441 6.90507 113.176 7.49093 113.111 8.11477H117.631C117.633 7.8102 117.587 7.5072 117.493 7.21741C117.407 6.95235 117.269 6.70694 117.088 6.49535C116.905 6.28748 116.677 6.12285 116.422 6.01328C116.132 5.89581 115.821 5.83968 115.508 5.84842Z" fill="black"/>
<path d="M60.2073 21.0548H54.4746V32.2634H52.3877V19.4229H60.2156L60.2073 21.0548Z" fill="black"/>
<path d="M62.5183 23.0255C63.142 23.0165 63.7616 23.1292 64.3422 23.3573C64.8677 23.5646 65.3419 23.8836 65.7321 24.2922C66.1274 24.7151 66.4296 25.2164 66.619 25.7635C67.0364 27.0258 67.0364 28.389 66.619 29.6513C66.4291 30.1994 66.127 30.7019 65.7321 31.1268C65.3428 31.5379 64.8685 31.8592 64.3422 32.0679C63.1631 32.5077 61.8651 32.5077 60.686 32.0679C60.1578 31.8592 59.6814 31.5381 59.2899 31.1268C58.8934 30.7023 58.5899 30.1998 58.3988 29.6513C57.9813 28.389 57.9813 27.0258 58.3988 25.7635C58.5896 25.2161 58.8932 24.7149 59.2899 24.2922C59.6823 23.8834 60.1586 23.5645 60.686 23.3573C61.2694 23.1286 61.8917 23.0159 62.5183 23.0255ZM62.5183 30.8993C63.3391 30.8993 63.9499 30.6245 64.3505 30.075C64.7512 29.5254 64.9516 28.7394 64.9516 27.7168C64.9516 26.6942 64.7512 25.9047 64.3505 25.3482C63.9499 24.7917 63.3391 24.5134 62.5183 24.5134C61.6835 24.5134 61.0651 24.7917 60.663 25.3482C60.261 25.9047 60.0592 26.6942 60.0578 27.7168C60.0578 28.7394 60.2596 29.5254 60.663 30.075C61.0665 30.6245 61.6849 30.8965 62.5183 30.8909V30.8993Z" fill="black"/>
<path d="M68.7693 35.2858V23.1693H69.9275C70.041 23.1594 70.1543 23.191 70.2463 23.2581C70.3384 23.3252 70.4031 23.4234 70.4284 23.5345L70.5786 24.4882C70.7662 24.2721 70.9691 24.0699 71.1859 23.883C71.3978 23.6999 71.6295 23.541 71.8766 23.4093C72.1281 23.2774 72.3943 23.1758 72.6697 23.1067C72.9661 23.0342 73.2702 22.9984 73.5754 23.0003C74.0568 22.9937 74.5332 23.0987 74.9673 23.3071C75.3942 23.5184 75.7641 23.829 76.0462 24.2128C76.3666 24.6517 76.601 25.1474 76.737 25.6736C76.9104 26.3234 76.9933 26.9941 76.9832 27.6666C76.9882 28.3027 76.8967 28.936 76.7119 29.5448C76.5477 30.0911 76.283 30.6021 75.9315 31.0515C75.5924 31.4848 75.1572 31.8333 74.6603 32.0694C74.1634 32.3055 73.6183 32.4229 73.0683 32.4121C72.6272 32.4311 72.1873 32.3551 71.7782 32.1891C71.3692 32.0231 71.0006 31.7711 70.6976 31.4501V35.3004L68.7693 35.2858ZM72.9326 24.5425C72.4901 24.5294 72.0526 24.6384 71.668 24.8576C71.2875 25.0958 70.9549 25.403 70.6871 25.7633V29.9809C70.9143 30.293 71.2164 30.5428 71.5657 30.7072C71.8992 30.8498 72.259 30.9209 72.6217 30.9158C72.9585 30.9314 73.2942 30.8652 73.5998 30.7227C73.9055 30.5802 74.1721 30.3658 74.3767 30.0978C74.7941 29.551 75.0028 28.7364 75.0028 27.654C75.0109 27.1729 74.9626 26.6924 74.8588 26.2224C74.7831 25.8765 74.6414 25.5484 74.4414 25.2562C74.2778 25.0189 74.0528 24.8307 73.7903 24.7115C73.5192 24.5965 73.2271 24.539 72.9326 24.5425Z" fill="black"/>
<path d="M78.8247 32.2725V23.1695H80.7426V28.8667C80.7425 29.0061 80.7348 29.1454 80.7196 29.2841C80.705 29.4364 80.6862 29.5887 80.6633 29.7432C80.7625 29.5057 80.8849 29.2785 81.0285 29.0649C81.0285 29.0545 81.0973 28.9668 81.2163 28.8062L81.6754 28.1801L82.3015 27.3119L83.0194 26.3165L84.9727 23.6411C85.0493 23.5169 85.1451 23.4056 85.2565 23.3114C85.3679 23.2139 85.5112 23.1604 85.6593 23.1611H86.8175V32.2558H84.8996V26.5586C84.8996 26.4396 84.8996 26.3061 84.9184 26.1558C84.9372 26.0056 84.9476 25.8574 84.9727 25.7009C84.9122 25.8323 84.8537 25.9534 84.7932 26.0619C84.7407 26.1625 84.6814 26.2594 84.6158 26.352C84.6033 26.3645 84.5386 26.4522 84.4238 26.617C84.3091 26.7819 84.1567 26.9885 83.9689 27.2431L83.3303 28.1112C83.0945 28.4368 82.8524 28.7665 82.6082 29.1067L80.6653 31.78C80.5873 31.9025 80.4909 32.0123 80.3794 32.1055C80.2702 32.206 80.1272 32.2619 79.9788 32.262L78.8247 32.2725Z" fill="black"/>
<path d="M88.6086 24.1309C88.9772 23.7893 89.406 23.5189 89.8732 23.3337C90.4449 23.1147 91.0539 23.0098 91.6658 23.0249C92.1668 23.0183 92.6658 23.0887 93.1454 23.2336C93.5339 23.3462 93.8993 23.5271 94.2244 23.7678C94.5002 23.9725 94.7274 24.2354 94.8901 24.5379C95.0092 24.7598 95.0834 25.0031 95.1084 25.2537C95.1335 25.5044 95.1089 25.7575 95.0362 25.9987C94.9796 26.195 94.8907 26.3804 94.7732 26.5475C94.6398 26.7381 94.4771 26.9065 94.2911 27.0463C94.0687 27.2133 93.8206 27.343 93.5566 27.4303C94.0546 27.5819 94.4995 27.8713 94.84 28.265C95.1596 28.654 95.3279 29.1454 95.3137 29.6486C95.3199 30.0558 95.2168 30.4572 95.0153 30.811C94.8144 31.1538 94.5435 31.4503 94.2202 31.6813C93.8738 31.9266 93.4876 32.1102 93.0787 32.2238C92.6426 32.35 92.1907 32.4132 91.7368 32.4117C91.4458 32.4106 91.1555 32.3855 90.8687 32.3365C90.5629 32.2851 90.2634 32.2011 89.9755 32.0861C89.6763 31.9683 89.3913 31.8171 89.1261 31.6353C88.8469 31.448 88.5972 31.2201 88.3853 30.9592L88.9383 30.2538C88.9757 30.1943 89.0288 30.1462 89.0917 30.1149C89.1547 30.0836 89.2251 30.0703 89.2951 30.0764C89.428 30.0811 89.5559 30.1278 89.6603 30.21C89.7856 30.2977 89.9316 30.3957 90.1007 30.5042C90.2955 30.6228 90.5017 30.7214 90.7163 30.7985C91.0055 30.8944 91.3091 30.9396 91.6137 30.9321C91.8818 30.936 92.1491 30.9001 92.4067 30.8256C92.6205 30.7626 92.8203 30.6592 92.9952 30.5209C93.1532 30.3965 93.2804 30.2373 93.3667 30.0556C93.451 29.8761 93.4938 29.68 93.4919 29.4817C93.4972 29.2929 93.4546 29.1059 93.3681 28.9381C93.2816 28.7702 93.154 28.627 92.9973 28.5217C92.6676 28.288 92.1479 28.169 91.4405 28.169H90.4158V26.9044H91.4405C91.942 26.9342 92.4413 26.8159 92.8762 26.5642C93.0253 26.4795 93.1503 26.3582 93.2394 26.2117C93.3285 26.0653 93.3788 25.8985 93.3855 25.7272C93.3921 25.5559 93.355 25.3857 93.2776 25.2327C93.2002 25.0797 93.085 24.949 92.943 24.853C92.6481 24.6276 92.207 24.5149 91.6199 24.5149C91.332 24.5088 91.0447 24.5433 90.7664 24.6172C90.5626 24.6738 90.3642 24.7485 90.1737 24.8405C90.013 24.9198 89.8795 24.9928 89.7689 25.0491C89.6828 25.1074 89.5826 25.1413 89.4788 25.1472C89.3997 25.15 89.3213 25.132 89.2513 25.0951C89.1651 25.0382 89.0935 24.9616 89.0426 24.8718L88.6086 24.1309Z" fill="black"/>
<path d="M101.108 23.0254C101.732 23.0165 102.352 23.1292 102.932 23.3573C103.458 23.564 103.932 23.8831 104.322 24.2922C104.718 24.7151 105.02 25.2164 105.209 25.7634C105.627 27.0258 105.627 28.389 105.209 29.6513C105.019 30.1994 104.717 30.7019 104.322 31.1267C103.933 31.5384 103.459 31.8597 102.932 32.0679C101.753 32.5076 100.455 32.5076 99.2761 32.0679C98.7479 31.8592 98.2715 31.5381 97.88 31.1267C97.4835 30.7023 97.18 30.1998 96.9888 29.6513C96.5714 28.389 96.5714 27.0258 96.9888 25.7634C97.1797 25.2161 97.4833 24.7149 97.88 24.2922C98.2724 23.8834 98.7487 23.5645 99.2761 23.3573C99.8595 23.1287 100.482 23.016 101.108 23.0254ZM101.108 30.8993C101.928 30.8993 102.539 30.6245 102.941 30.0749C103.343 29.5254 103.543 28.7393 103.542 27.7168C103.542 26.6942 103.341 25.9047 102.941 25.3482C102.54 24.7916 101.929 24.5134 101.108 24.5134C100.274 24.5134 99.6552 24.7916 99.2531 25.3482C98.8511 25.9047 98.6493 26.6942 98.6479 27.7168C98.6479 28.7393 98.8497 29.5254 99.2531 30.0749C99.6566 30.6245 100.275 30.8965 101.108 30.8909V30.8993Z" fill="black"/>
<path d="M115.116 23.1699V32.2646H113.209V28.1367H109.277V32.2646H107.359V23.1699H109.277V26.6926H113.209V23.1699H115.116Z" fill="black"/>
<path d="M116.516 23.1699H125.147V24.614H121.796V32.2646H119.87V24.614H116.516V23.1699Z" fill="black"/>
<path d="M128.367 23.1699V26.63H130.133C130.674 26.6163 131.214 26.6932 131.729 26.8574C132.116 26.9848 132.472 27.1924 132.773 27.4668C133.033 27.7126 133.231 28.0165 133.351 28.3537C133.469 28.6888 133.53 29.0417 133.53 29.3972C133.535 29.7937 133.459 30.1871 133.307 30.5533C133.159 30.8998 132.935 31.2086 132.652 31.4569C132.342 31.7252 131.982 31.9276 131.592 32.0517C131.125 32.1972 130.638 32.2676 130.15 32.2604H126.548V23.1699H128.367ZM128.367 28.0115V30.8726H130.158C130.408 30.8779 130.657 30.8405 130.895 30.762C131.088 30.6972 131.267 30.5943 131.42 30.4594C131.559 30.3326 131.666 30.1754 131.734 30.0003C131.803 29.8119 131.837 29.6125 131.836 29.4118C131.837 29.2275 131.805 29.0444 131.742 28.8713C131.679 28.7024 131.579 28.5503 131.448 28.4268C131.298 28.2888 131.12 28.1849 130.926 28.1221C130.672 28.0429 130.407 28.0056 130.141 28.0115H128.367ZM137.266 23.1699V32.2646H135.348V23.1699H137.266Z" fill="black"/>
<path d="M56.2511 38.7179C56.2719 38.6822 56.2995 38.651 56.3325 38.6261C56.3631 38.5996 56.4026 38.5855 56.4431 38.5865H56.7499V44.3797H56.3325V39.6237C56.3325 39.536 56.3325 39.4463 56.3325 39.3544C56.3352 39.2595 56.3429 39.1648 56.3554 39.0706C56.3179 39.1541 56.2803 39.2313 56.2427 39.3023C56.2031 39.3711 56.1655 39.4358 56.128 39.4964L52.789 44.2482C52.7663 44.2837 52.7381 44.3154 52.7055 44.3421C52.6728 44.3662 52.6334 44.3794 52.5928 44.3797H52.2839V38.5865H52.7013V43.3446C52.7013 43.4322 52.7013 43.5199 52.7013 43.6117C52.7013 43.7035 52.6888 43.7995 52.6763 43.8976C52.7103 43.8184 52.7487 43.741 52.791 43.6659C52.8286 43.5971 52.8662 43.5303 52.9058 43.4677L56.2511 38.7179Z" fill="black"/>
<path d="M61.4154 40.3071V44.3807H61.0189V42.3377H58.6044V44.3807H58.21V40.3071H58.6044V42.0392H61.0189V40.3071H61.4154Z" fill="black"/>
<path d="M62.7599 40.3071H64.1143C64.3255 40.3027 64.5362 40.328 64.7404 40.3823C64.892 40.4234 65.0338 40.4944 65.1577 40.5909C65.2597 40.6699 65.3401 40.7732 65.3915 40.8915C65.4413 41.0045 65.4669 41.1268 65.4666 41.2504C65.4653 41.3478 65.4513 41.4446 65.4249 41.5384C65.3963 41.6422 65.3489 41.7398 65.285 41.8264C65.2131 41.9244 65.124 42.0085 65.0221 42.0747C64.8942 42.1543 64.7527 42.2095 64.6047 42.2375C64.9057 42.2531 65.1925 42.3701 65.4186 42.5693C65.5049 42.6556 65.5727 42.7586 65.6179 42.872C65.6631 42.9854 65.6848 43.1068 65.6816 43.2288C65.6841 43.3978 65.647 43.5651 65.573 43.7171C65.5007 43.8599 65.3964 43.9841 65.2683 44.0802C65.1286 44.1836 64.9707 44.26 64.803 44.3056C64.6072 44.3593 64.4049 44.3853 64.2019 44.3828H62.7578L62.7599 40.3071ZM63.1355 42.1373H64.1018C64.2431 42.1399 64.384 42.1202 64.5192 42.0789C64.6373 42.0441 64.7473 41.9859 64.8426 41.9078C64.9311 41.8369 65.0024 41.7471 65.0513 41.6448C65.104 41.5385 65.1305 41.4212 65.1285 41.3026C65.129 41.2103 65.1112 41.1188 65.0764 41.0334C65.0395 40.9437 64.9806 40.8648 64.9052 40.8038C64.812 40.7288 64.7049 40.6728 64.5901 40.6389C64.4334 40.5943 64.2709 40.5739 64.108 40.5784H63.1418L63.1355 42.1373ZM63.1355 42.4003V44.1032H64.1999C64.3579 44.1052 64.5154 44.0841 64.6673 44.0406C64.7955 44.0066 64.9155 43.9469 65.02 43.8653C65.1132 43.7901 65.1887 43.6953 65.2412 43.5877C65.2929 43.4729 65.3193 43.3484 65.3184 43.2225C65.3197 43.1077 65.2992 42.9937 65.2579 42.8865C65.2154 42.7845 65.148 42.6948 65.0617 42.6257C64.96 42.5476 64.8436 42.4908 64.7195 42.4587C64.5538 42.4165 64.3833 42.3969 64.2124 42.4003H63.1355Z" fill="black"/>
<path d="M68.3572 40.2419C68.5758 40.2402 68.7926 40.2806 68.9958 40.3608C69.1886 40.4383 69.3628 40.5557 69.5071 40.7051C69.6574 40.8668 69.7738 41.057 69.8494 41.2644C69.9367 41.5087 69.9791 41.7668 69.9746 42.0261C69.9791 42.0688 69.9703 42.1118 69.9495 42.1493C69.9394 42.1612 69.9265 42.1705 69.9119 42.1763C69.8974 42.1822 69.8816 42.1843 69.8661 42.1827H66.9027V42.2599C66.8981 42.5322 66.9339 42.8036 67.0091 43.0654C67.0692 43.2787 67.1722 43.4776 67.3117 43.6497C67.4396 43.8044 67.6028 43.9261 67.7875 44.0045C67.9858 44.0867 68.1989 44.1272 68.4136 44.1235C68.5934 44.1268 68.7727 44.1036 68.9457 44.0546C69.0771 44.0174 69.2043 43.9671 69.3255 43.9043C69.41 43.8598 69.491 43.8089 69.5676 43.752C69.6043 43.7178 69.6499 43.6947 69.6991 43.6852C69.7149 43.6842 69.7308 43.6874 69.745 43.6943C69.7593 43.7013 69.7715 43.7118 69.7805 43.7249L69.8869 43.8563C69.813 43.9457 69.7257 44.0231 69.6282 44.0859C69.5149 44.1596 69.3938 44.2205 69.2671 44.2675C69.1317 44.3197 68.9921 44.3602 68.8497 44.3885C68.6994 44.4194 68.5462 44.4348 68.3927 44.4344C68.1316 44.4369 67.8726 44.3873 67.631 44.2883C67.4057 44.1957 67.2044 44.0529 67.0425 43.8709C66.867 43.6706 66.7348 43.4362 66.6543 43.1823C66.5621 42.8837 66.5178 42.5723 66.5229 42.2599C66.5206 41.9851 66.5621 41.7118 66.646 41.4502C66.7232 41.2156 66.8459 40.9986 67.007 40.8116C67.1674 40.6325 67.3646 40.4901 67.5851 40.3942C67.8291 40.2903 68.0921 40.2384 68.3572 40.2419ZM68.3572 40.5319C68.1643 40.5292 67.9725 40.5625 67.7917 40.63C67.6314 40.6919 67.4857 40.7864 67.3639 40.9076C67.2396 41.0358 67.1398 41.1858 67.0696 41.35C66.9915 41.5343 66.9409 41.7291 66.9194 41.9281H69.6323C69.635 41.7288 69.604 41.5305 69.5405 41.3416C69.4855 41.1782 69.3966 41.0281 69.2796 40.9013C69.1684 40.7811 69.0324 40.6864 68.881 40.6238C68.7159 40.5582 68.5391 40.527 68.3614 40.5319H68.3572Z" fill="black"/>
<path d="M73.7721 40.851C73.76 40.864 73.7467 40.8759 73.7325 40.8865C73.7178 40.8966 73.7002 40.9017 73.6824 40.9011C73.6406 40.894 73.6021 40.8743 73.5718 40.8448C73.5128 40.7991 73.45 40.7586 73.384 40.7237C73.2886 40.6739 73.1887 40.6333 73.0855 40.6027C72.7352 40.5112 72.3645 40.5361 72.0296 40.6737C71.8506 40.7549 71.6934 40.8772 71.5704 41.0305C71.4381 41.1979 71.3409 41.3903 71.2845 41.5961C71.2184 41.8388 71.1861 42.0895 71.1885 42.3411C71.1845 42.5985 71.2182 42.8552 71.2887 43.1028C71.3468 43.306 71.4439 43.496 71.5746 43.6621C71.6931 43.8113 71.8455 43.93 72.0191 44.0085C72.2024 44.0895 72.401 44.13 72.6014 44.1274C72.7683 44.1312 72.9348 44.1072 73.0939 44.0565C73.2085 44.0192 73.3185 43.9688 73.4215 43.9062C73.4957 43.8622 73.5656 43.8112 73.6302 43.7539C73.662 43.7173 73.7055 43.693 73.7533 43.685C73.7694 43.6848 73.7852 43.6882 73.7997 43.6951C73.8142 43.702 73.8269 43.7121 73.8368 43.7247L73.937 43.8562C73.8695 43.9433 73.7901 44.0206 73.7012 44.0857C73.6005 44.1588 73.492 44.2204 73.3777 44.2694C73.2514 44.323 73.1199 44.3636 72.9854 44.3904C72.8405 44.4202 72.6929 44.4348 72.545 44.4342C72.3012 44.4368 72.0595 44.3885 71.8355 44.2923C71.6219 44.1969 71.4328 44.0542 71.2825 43.8749C71.1207 43.6816 70.9987 43.4582 70.9235 43.2176C70.8326 42.9316 70.7889 42.6327 70.7941 42.3327C70.7912 42.0443 70.8327 41.7571 70.9172 41.4813C70.9918 41.2385 71.1138 41.0129 71.2762 40.8177C71.4349 40.6321 71.6331 40.4845 71.8563 40.3857C72.1041 40.2796 72.3716 40.2277 72.641 40.2333C72.8816 40.2285 73.1207 40.2718 73.3443 40.3606C73.5428 40.4404 73.7247 40.5565 73.8806 40.7029L73.7721 40.851Z" fill="black"/>
<path d="M74.3547 40.3071H78.1529V40.6056H76.45V44.3807H76.0576V40.6056H74.3547V40.3071Z" fill="black"/>
<path d="M78.9666 44.3807V40.3071H79.3589V43.5919C79.3589 43.6294 79.3589 43.6691 79.3589 43.7129C79.357 43.7555 79.3528 43.798 79.3464 43.8402C79.3628 43.8059 79.3809 43.7725 79.4006 43.7401L79.4528 43.6566C79.4528 43.6566 79.4925 43.6002 79.5655 43.5042C79.6385 43.4082 79.7324 43.2851 79.8472 43.1307L80.2396 42.609C80.3836 42.4149 80.5317 42.2166 80.6862 42.0142L81.8924 40.4094C81.9093 40.3819 81.9313 40.3578 81.9571 40.3384C81.9803 40.3184 82.0099 40.3073 82.0406 40.3071H82.266V44.3807H81.8778V41.0981C81.8778 41.0188 81.8778 40.9353 81.8882 40.8476C81.8742 40.8833 81.8567 40.9176 81.8361 40.9499C81.8173 40.9812 81.7985 41.0083 81.7818 41.0313L81.6691 41.1857C81.5982 41.2817 81.5042 41.4069 81.3874 41.5593L80.995 42.081C80.8489 42.273 80.7008 42.4712 80.5505 42.6737L79.3422 44.2826C79.3253 44.3083 79.3041 44.3309 79.2796 44.3494C79.2562 44.3691 79.2267 44.3802 79.1961 44.3807H78.9666Z" fill="black"/>
<path d="M83.5942 40.3071H83.9887V44.0823H86.4074V40.3071H86.8018V44.0823H87.5468V45.708C87.5483 45.7431 87.5364 45.7774 87.5134 45.804C87.5017 45.8157 87.4877 45.8249 87.4722 45.831C87.4568 45.8371 87.4403 45.84 87.4237 45.8395H87.1941V44.3786H83.5942V40.3071Z" fill="black"/>
<path d="M88.4053 44.3807V40.3071H88.7976V43.5919C88.7976 43.6294 88.7976 43.6691 88.7976 43.7129C88.7957 43.7555 88.7915 43.798 88.7851 43.8402C88.8015 43.8059 88.8196 43.7725 88.8393 43.7401L88.8915 43.6566C88.8915 43.6566 88.9312 43.6002 89.0042 43.5042C89.0772 43.4082 89.1712 43.2851 89.2859 43.1307L89.6783 42.609C89.8223 42.4149 89.9704 42.2166 90.1249 42.0142L91.3311 40.4094C91.348 40.3819 91.37 40.3578 91.3958 40.3384C91.419 40.3184 91.4486 40.3073 91.4793 40.3071H91.6963V44.3807H91.3081V41.0981C91.3081 41.0188 91.3081 40.9353 91.3081 40.8476C91.2941 40.8833 91.2767 40.9176 91.256 40.9499C91.2372 40.9812 91.2184 41.0083 91.2017 41.0313L91.089 41.1857C91.016 41.2817 90.9241 41.4069 90.8073 41.5593L90.4149 42.081C90.2689 42.273 90.1207 42.4712 89.9704 42.6737L88.7746 44.2826C88.7577 44.3083 88.7365 44.3309 88.712 44.3494C88.6886 44.3691 88.6592 44.3802 88.6286 44.3807H88.4053Z" fill="black"/>
<path d="M94.6556 40.242C94.9245 40.2379 95.1914 40.2883 95.4403 40.3901C95.6636 40.4842 95.8632 40.6268 96.0246 40.8075C96.1873 41.0021 96.31 41.2269 96.3857 41.469C96.5526 42.0336 96.5526 42.6345 96.3857 43.1991C96.31 43.4406 96.1873 43.6647 96.0246 43.8585C95.8644 44.0406 95.6645 44.1834 95.4403 44.2759C94.9366 44.4736 94.3768 44.4736 93.8731 44.2759C93.6482 44.1835 93.4476 44.0407 93.2866 43.8585C93.1211 43.666 92.9968 43.4415 92.9214 43.1991C92.7573 42.6341 92.7573 42.034 92.9214 41.469C92.9971 41.2261 93.1213 41.001 93.2866 40.8075C93.4488 40.6267 93.6491 40.4842 93.8731 40.3901C94.1211 40.2881 94.3874 40.2377 94.6556 40.242ZM94.6556 44.1277C94.8744 44.1327 95.0916 44.09 95.2921 44.0025C95.4709 43.9219 95.6271 43.7987 95.7471 43.6436C95.875 43.4759 95.9679 43.2843 96.0205 43.0801C96.1401 42.5956 96.1401 42.0892 96.0205 41.6047C95.9671 41.3995 95.8742 41.2067 95.7471 41.0371C95.6272 40.8814 95.471 40.7574 95.2921 40.676C95.0905 40.592 94.8741 40.5487 94.6556 40.5487C94.4371 40.5487 94.2208 40.592 94.0191 40.676C93.8406 40.7579 93.6845 40.8818 93.5642 41.0371C93.4371 41.2067 93.3442 41.3995 93.2908 41.6047C93.1684 42.0889 93.1684 42.5959 93.2908 43.0801C93.3434 43.2843 93.4363 43.4759 93.5642 43.6436C93.6847 43.7982 93.8407 43.9213 94.0191 44.0025C94.2198 44.0898 94.4369 44.1325 94.6556 44.1277Z" fill="black"/>
<path d="M100.819 40.3071V44.3807H100.424V42.3377H98.0056V44.3807H97.6133V40.3071H98.0056V42.0392H100.424V40.3071H100.819Z" fill="black"/>
<path d="M105.366 40.3071V44.3807H104.974V42.3377H102.549V44.3807H102.155V40.3071H102.549V42.0392H104.968V40.3071H105.366Z" fill="black"/>
<path d="M109.226 44.3795C109.191 44.3832 109.156 44.3734 109.128 44.3521C109.099 44.3308 109.08 44.2996 109.074 44.2647L109.018 43.7451C108.912 43.849 108.8 43.9473 108.684 44.0393C108.576 44.1251 108.46 44.1993 108.337 44.2605C108.213 44.3222 108.082 44.3685 107.947 44.3983C107.797 44.4311 107.644 44.4472 107.49 44.4463C107.352 44.4465 107.215 44.4254 107.083 44.3837C106.956 44.3443 106.837 44.2805 106.735 44.1958C106.629 44.1071 106.545 43.9958 106.488 43.8703C106.424 43.7194 106.393 43.5564 106.397 43.3924C106.396 43.2217 106.448 43.0549 106.545 42.9145C106.664 42.7494 106.822 42.6166 107.006 42.5284C107.262 42.4044 107.535 42.3166 107.816 42.2676C108.207 42.1959 108.603 42.1575 109.001 42.1528V41.7354C109.021 41.426 108.935 41.1189 108.757 40.8652C108.669 40.7615 108.557 40.6799 108.432 40.627C108.307 40.574 108.171 40.5513 108.035 40.5605C107.864 40.556 107.693 40.5836 107.532 40.6419C107.409 40.6884 107.292 40.7486 107.183 40.8214C107.102 40.8771 107.024 40.9377 106.95 41.0029C106.91 41.047 106.856 41.0758 106.797 41.0843C106.771 41.0857 106.746 41.0783 106.724 41.0634C106.705 41.0491 106.688 41.0314 106.674 41.0113L106.605 40.8923C106.799 40.693 107.027 40.5292 107.277 40.4082C107.528 40.2963 107.8 40.2407 108.074 40.2454C108.271 40.2416 108.466 40.2771 108.648 40.3497C108.81 40.4137 108.953 40.5161 109.066 40.6482C109.171 40.7871 109.247 40.9462 109.289 41.1156C109.347 41.3192 109.374 41.5301 109.37 41.7417V44.3941L109.226 44.3795ZM107.588 44.1708C107.735 44.1721 107.882 44.1553 108.024 44.1207C108.152 44.0879 108.276 44.0395 108.392 43.9767C108.505 43.9196 108.611 43.8496 108.709 43.768C108.807 43.6846 108.905 43.5927 109.001 43.4947V42.4345C108.665 42.4403 108.329 42.4696 107.997 42.5222C107.758 42.5579 107.525 42.6231 107.302 42.7163C107.147 42.7794 107.009 42.8797 106.902 43.0084C106.816 43.1197 106.771 43.2563 106.772 43.3966C106.769 43.5177 106.793 43.6381 106.841 43.7493C106.881 43.8439 106.943 43.9281 107.021 43.9955C107.097 44.06 107.186 44.1083 107.281 44.1374C107.379 44.1595 107.478 44.168 107.578 44.1625L107.588 44.1708Z" fill="black"/>
<path d="M113.223 44.3808H112.843V42.5506H112.311C112.259 42.5538 112.206 42.5601 112.155 42.5694C112.114 42.5779 112.075 42.5919 112.038 42.6111C112.003 42.6289 111.971 42.6521 111.944 42.68C111.912 42.7121 111.882 42.747 111.856 42.7844L110.665 44.2452C110.641 44.2886 110.606 44.3253 110.564 44.3516C110.512 44.3768 110.455 44.3883 110.397 44.385H110.128L111.508 42.7155C111.575 42.603 111.681 42.5186 111.806 42.4776C111.611 42.467 111.419 42.4269 111.236 42.3586C111.094 42.3052 110.963 42.2252 110.85 42.1228C110.757 42.0335 110.686 41.9243 110.642 41.8035C110.597 41.6826 110.574 41.5547 110.575 41.4258C110.576 41.2904 110.601 41.1562 110.648 41.0293C110.7 40.8939 110.782 40.772 110.888 40.6724C111.01 40.5563 111.155 40.4661 111.314 40.4074C111.521 40.3356 111.741 40.3017 111.96 40.3072H113.225L113.223 44.3808ZM110.95 41.4592C110.948 41.5814 110.976 41.7023 111.03 41.8119C111.085 41.9169 111.164 42.0071 111.261 42.0748C111.374 42.1504 111.499 42.2055 111.631 42.2376C111.79 42.2777 111.953 42.2973 112.117 42.296H112.843V40.5806H111.971C111.806 40.5758 111.643 40.6035 111.489 40.662C111.37 40.7088 111.263 40.7799 111.174 40.8707C111.096 40.9507 111.038 41.047 111.003 41.1524C110.969 41.2504 110.951 41.3534 110.95 41.4571V41.4592Z" fill="black"/>
<path d="M119.995 40.3071V44.3807H119.602V40.6056H117.182V44.3807H116.789V40.3071H119.995Z" fill="black"/>
<path d="M124.656 40.3071V44.3807H124.264V40.6243H122.613C122.593 41.0938 122.549 41.5619 122.48 42.0267C122.428 42.3718 122.352 42.7128 122.252 43.0472C122.18 43.2883 122.082 43.5207 121.958 43.7401C121.867 43.8962 121.753 44.0371 121.618 44.1574C121.513 44.2524 121.388 44.3236 121.253 44.3661C121.136 44.4043 121.014 44.424 120.892 44.4246C120.834 44.425 120.776 44.4194 120.719 44.4079C120.671 44.3974 120.646 44.3807 120.646 44.3578V44.1094H120.825C120.928 44.108 121.03 44.0875 121.126 44.0489C121.241 44.0021 121.345 43.9309 121.43 43.8402C121.547 43.7161 121.646 43.5755 121.722 43.4228C121.829 43.2009 121.914 42.9688 121.975 42.73C122.059 42.3944 122.124 42.0544 122.171 41.7116C122.227 41.3165 122.266 40.8511 122.29 40.3155L124.656 40.3071Z" fill="black"/>
<path d="M128.507 44.3796C128.472 44.3833 128.437 44.3735 128.409 44.3522C128.38 44.3309 128.361 44.2996 128.355 44.2648L128.299 43.7451C128.193 43.8491 128.081 43.9473 127.965 44.0394C127.858 44.1256 127.742 44.1998 127.618 44.2606C127.495 44.322 127.365 44.3682 127.23 44.3983C127.079 44.4313 126.925 44.4474 126.771 44.4463C126.634 44.4468 126.497 44.4256 126.366 44.3837C126.238 44.3448 126.119 44.281 126.016 44.1959C125.911 44.1066 125.827 43.9955 125.769 43.8704C125.705 43.7195 125.674 43.5565 125.678 43.3925C125.678 43.2219 125.729 43.0554 125.826 42.9146C125.945 42.7494 126.103 42.6167 126.287 42.5285C126.543 42.4045 126.816 42.3167 127.097 42.2676C127.488 42.1959 127.884 42.1575 128.282 42.1529V41.7355C128.302 41.426 128.216 41.119 128.038 40.8652C127.95 40.7615 127.838 40.6799 127.713 40.627C127.588 40.5741 127.452 40.5513 127.316 40.5606C127.145 40.5561 126.974 40.5837 126.813 40.642C126.69 40.6889 126.574 40.7491 126.464 40.8214C126.383 40.8772 126.305 40.9378 126.231 41.003C126.191 41.047 126.137 41.0758 126.078 41.0844C126.052 41.0857 126.027 41.0784 126.005 41.0635C125.986 41.0498 125.969 41.032 125.957 41.0113L125.886 40.8924C126.08 40.6931 126.308 40.5292 126.558 40.4082C126.809 40.2964 127.081 40.2408 127.355 40.2454C127.552 40.2413 127.747 40.2768 127.929 40.3498C128.091 40.413 128.235 40.5155 128.347 40.6482C128.46 40.7866 128.543 40.9473 128.591 41.1198C128.648 41.3234 128.676 41.5344 128.672 41.7459V44.3983L128.507 44.3796ZM126.869 44.1709C127.016 44.1723 127.163 44.1555 127.305 44.1208C127.433 44.0879 127.557 44.0396 127.673 43.9768C127.786 43.9192 127.893 43.8492 127.992 43.7681C128.09 43.6846 128.186 43.5928 128.282 43.4947V42.4346C127.946 42.4404 127.61 42.4697 127.278 42.5222C127.04 42.5579 126.807 42.6231 126.585 42.7163C126.43 42.7798 126.291 42.88 126.183 43.0085C126.098 43.12 126.053 43.2567 126.055 43.3966C126.052 43.5176 126.075 43.638 126.122 43.7493C126.162 43.844 126.224 43.9282 126.302 43.9956C126.378 44.0601 126.467 44.1084 126.562 44.1375C126.663 44.1606 126.766 44.169 126.869 44.1625V44.1709Z" fill="black"/>
<path d="M129.288 40.3071H133.088V40.6056H131.385V44.3807H130.993V40.6056H129.288V40.3071Z" fill="black"/>
<path d="M135.94 38.5869V40.2564C136.255 40.2593 136.567 40.3158 136.864 40.4234C137.116 40.5182 137.346 40.6646 137.538 40.8533C137.722 41.0391 137.864 41.2617 137.955 41.5065C138.142 42.0545 138.142 42.6488 137.955 43.1968C137.865 43.4412 137.722 43.6633 137.538 43.8479C137.345 44.0329 137.116 44.1752 136.864 44.2653C136.567 44.3729 136.255 44.4294 135.94 44.4323V45.8367H135.572V44.4323C135.256 44.4299 134.943 44.3735 134.646 44.2653C134.395 44.1751 134.166 44.0329 133.974 43.8479C133.79 43.6633 133.647 43.4412 133.556 43.1968C133.37 42.6488 133.37 42.0545 133.556 41.5065C133.648 41.2617 133.79 41.0391 133.974 40.8533C134.165 40.6647 134.394 40.5183 134.646 40.4234C134.943 40.3152 135.256 40.2588 135.572 40.2564V38.5869H135.94ZM133.807 42.3433C133.803 42.5883 133.84 42.8322 133.915 43.0654C133.982 43.2735 134.094 43.4644 134.243 43.6247C134.397 43.7861 134.585 43.9115 134.794 43.9919C135.043 44.0857 135.306 44.1351 135.572 44.138V44.0379V43.9043V40.774V40.6592V40.5444C135.306 40.5458 135.042 40.5961 134.794 40.6926C134.586 40.7709 134.399 40.8953 134.247 41.0566C134.095 41.2179 133.981 41.4117 133.915 41.6233C133.838 41.8548 133.799 42.0973 133.8 42.3412L133.807 42.3433ZM135.94 44.138C136.206 44.1351 136.469 44.0857 136.718 43.9919C136.926 43.9115 137.114 43.7861 137.269 43.6247C137.418 43.4644 137.529 43.2735 137.596 43.0654C137.741 42.5963 137.741 42.0945 137.596 41.6254C137.529 41.4139 137.414 41.2205 137.261 41.0599C137.108 40.8994 136.92 40.7759 136.712 40.6988C136.463 40.6023 136.2 40.5521 135.933 40.5507V40.5882V40.7802V43.9106V44.0566L135.94 44.138Z" fill="black"/>
<path d="M140.789 40.2419C141.057 40.2379 141.324 40.2883 141.573 40.3901C141.796 40.4843 141.995 40.6268 142.155 40.8075C142.32 41.0014 142.443 41.2264 142.519 41.469C142.686 42.0336 142.686 42.6344 142.519 43.199C142.443 43.4411 142.32 43.6654 142.155 43.8585C141.996 44.0405 141.797 44.1834 141.573 44.2759C141.069 44.4735 140.508 44.4735 140.004 44.2759C139.78 44.1834 139.58 44.0406 139.42 43.8585C139.254 43.666 139.13 43.4415 139.054 43.199C138.887 42.6344 138.887 42.0336 139.054 41.469C139.13 41.226 139.254 41.001 139.42 40.8075C139.581 40.6267 139.781 40.4842 140.004 40.3901C140.253 40.2883 140.52 40.2379 140.789 40.2419ZM140.789 44.1277C141.004 44.1312 141.217 44.0885 141.415 44.0025C141.593 43.9219 141.75 43.7986 141.87 43.6435C141.998 43.4763 142.09 43.2845 142.141 43.0801C142.263 42.5959 142.263 42.0888 142.141 41.6047C142.089 41.3993 141.997 41.2063 141.87 41.037C141.75 40.8814 141.593 40.7574 141.415 40.676C141.213 40.592 140.997 40.5487 140.778 40.5487C140.56 40.5487 140.343 40.592 140.142 40.676C139.963 40.7574 139.807 40.8814 139.687 41.037C139.56 41.2067 139.467 41.3995 139.413 41.6047C139.291 42.0888 139.291 42.5959 139.413 43.0801C139.466 43.2843 139.559 43.4759 139.687 43.6435C139.807 43.7986 139.963 43.9219 140.142 44.0025C140.345 44.0913 140.566 44.134 140.789 44.1277Z" fill="black"/>
<path d="M143.746 45.8228V40.3072H143.954C143.969 40.306 143.983 40.3078 143.997 40.3123C144.011 40.3168 144.024 40.3241 144.035 40.3336C144.046 40.3431 144.055 40.3547 144.062 40.3677C144.068 40.3807 144.072 40.3949 144.073 40.4094L144.109 41.0355C144.276 40.8009 144.489 40.6022 144.735 40.4512C144.982 40.3091 145.263 40.237 145.549 40.2425C145.771 40.2314 145.993 40.2727 146.196 40.3629C146.399 40.4532 146.579 40.5899 146.719 40.7621C146.998 41.1085 147.137 41.6282 147.137 42.321C147.139 42.6035 147.099 42.8847 147.02 43.1558C146.95 43.3994 146.833 43.627 146.676 43.8257C146.526 44.0148 146.335 44.1681 146.118 44.2743C145.882 44.3883 145.621 44.4448 145.359 44.4392C145.111 44.4456 144.866 44.3934 144.643 44.2869C144.435 44.1818 144.256 44.0287 144.119 43.8403V45.827L143.746 45.8228ZM145.457 40.5534C145.197 40.5499 144.942 40.6224 144.722 40.7621C144.491 40.9153 144.293 41.1124 144.138 41.3423V43.4938C144.264 43.7003 144.441 43.8702 144.653 43.9863C144.856 44.084 145.079 44.1326 145.305 44.1283C145.52 44.1325 145.735 44.0875 145.931 43.9968C146.109 43.9115 146.265 43.784 146.383 43.6253C146.511 43.4541 146.603 43.2599 146.657 43.0535C146.721 42.8133 146.752 42.5654 146.749 42.3168C146.749 41.7116 146.637 41.2664 146.415 40.9812C146.3 40.8392 146.154 40.7263 145.987 40.652C145.821 40.5776 145.639 40.5438 145.457 40.5534Z" fill="black"/>
<path d="M150.443 43.2514C150.47 43.1798 150.501 43.1101 150.537 43.0427L152.15 40.3861C152.163 40.3537 152.186 40.327 152.217 40.311C152.244 40.3 152.273 40.2944 152.303 40.2943H152.58V44.3887H152.232V41.0977C152.229 41.0477 152.229 40.9975 152.232 40.9475C152.232 40.8953 152.244 40.8452 152.253 40.7993L150.583 43.6103C150.569 43.6321 150.552 43.6517 150.533 43.6687C150.514 43.6855 150.489 43.6944 150.464 43.6938H150.418C150.393 43.6944 150.368 43.6855 150.349 43.6687C150.33 43.6517 150.313 43.6321 150.299 43.6103L148.575 40.7951C148.575 40.841 148.59 40.8911 148.596 40.9454C148.599 40.9961 148.599 41.047 148.596 41.0977V44.3804H148.252V40.2817H148.54C148.567 40.282 148.595 40.2884 148.619 40.3005C148.648 40.3175 148.672 40.343 148.686 40.3736L150.339 43.0343C150.379 43.104 150.414 43.1765 150.443 43.2514Z" fill="black"/>
<path d="M156.432 44.3795C156.397 44.3832 156.362 44.3733 156.335 44.352C156.307 44.3307 156.288 44.2995 156.282 44.2648L156.224 43.7451C156.118 43.8491 156.006 43.9473 155.89 44.0394C155.783 44.1256 155.667 44.1997 155.543 44.2606C155.42 44.3226 155.29 44.3689 155.155 44.3983C155.004 44.4312 154.851 44.4473 154.696 44.4463C154.559 44.4464 154.422 44.4253 154.291 44.3837C154.164 44.3448 154.045 44.281 153.943 44.1959C153.837 44.1077 153.753 43.9963 153.697 43.8703C153.631 43.7197 153.6 43.5566 153.605 43.3924C153.604 43.2221 153.655 43.0555 153.751 42.9145C153.87 42.7489 154.03 42.6161 154.214 42.5285C154.47 42.4047 154.742 42.3169 155.022 42.2676C155.413 42.196 155.809 42.1576 156.207 42.1528V41.7355C156.227 41.426 156.141 41.1189 155.963 40.8652C155.875 40.7614 155.764 40.6797 155.638 40.6268C155.513 40.5738 155.377 40.5512 155.241 40.5605C155.07 40.5562 154.9 40.5838 154.74 40.6419C154.617 40.6889 154.499 40.7491 154.389 40.8214C154.308 40.8771 154.23 40.9378 154.156 41.003C154.117 41.0473 154.064 41.0762 154.005 41.0843C153.979 41.0857 153.954 41.0784 153.932 41.0635C153.912 41.0504 153.894 41.0325 153.882 41.0113L153.813 40.8924C154.007 40.6936 154.234 40.5298 154.483 40.4082C154.735 40.296 155.007 40.2405 155.283 40.2454C155.479 40.2417 155.674 40.2771 155.856 40.3498C156.014 40.4152 156.154 40.5175 156.263 40.6482C156.375 40.7877 156.458 40.948 156.508 41.1198C156.565 41.3234 156.593 41.5343 156.589 41.7459V44.3983L156.432 44.3795ZM154.796 44.1708C154.943 44.1721 155.088 44.1553 155.23 44.1208C155.359 44.0883 155.483 44.0399 155.6 43.9768C155.713 43.9191 155.819 43.8491 155.917 43.7681C156.015 43.6846 156.111 43.5928 156.207 43.4947V42.4346C155.872 42.4403 155.537 42.4696 155.205 42.5222C154.967 42.5579 154.733 42.6231 154.51 42.7163C154.355 42.7789 154.217 42.8793 154.11 43.0085C154.024 43.1197 153.979 43.2564 153.98 43.3966C153.978 43.5176 154 43.6377 154.047 43.7493C154.089 43.8436 154.151 43.9277 154.229 43.9956C154.304 44.06 154.392 44.1083 154.487 44.1375C154.589 44.1606 154.693 44.169 154.796 44.1625V44.1708Z" fill="black"/>
<path d="M0.5 44.4557V34.2946C0.5 31.2049 1.72723 28.2418 3.91178 26.0568C6.09633 23.8719 9.05929 22.6441 12.149 22.6436V32.8004C12.1498 34.3307 11.8491 35.8462 11.2641 37.2602C10.679 38.6743 9.82108 39.9592 8.73929 41.0415C7.6575 42.1239 6.37305 42.9825 4.95932 43.5683C3.54559 44.1541 2.03029 44.4557 0.5 44.4557Z" fill="#296CDB"/>
<path d="M14.99 44.4552V23.3902C14.99 20.3007 16.2173 17.3377 18.4019 15.1531C20.5865 12.9685 23.5495 11.7412 26.639 11.7412V32.8C26.6398 34.3302 26.3391 35.8457 25.754 37.2598C25.169 38.6738 24.3111 39.9587 23.2293 41.0411C22.1475 42.1235 20.863 42.9821 19.4493 43.5679C18.0356 44.1537 16.5203 44.4552 14.99 44.4552Z" fill="#296CDB"/>
<path d="M29.4839 44.4552V12.4883C29.4839 9.39884 30.7112 6.43587 32.8958 4.25126C35.0804 2.06666 38.0434 0.839355 41.1329 0.839355V0.839355V32.8C41.1337 34.3303 40.833 35.8457 40.2479 37.2598C39.6629 38.6738 38.805 39.9587 37.7232 41.0411C36.6414 42.1235 35.3569 42.9821 33.9432 43.5679C32.5295 44.1537 31.0142 44.4552 29.4839 44.4552Z" fill="#296CDB"/>
</svg>
