<svg width="139" height="41" viewBox="0 0 139 41" fill="none" xmlns="http://www.w3.org/2000/svg">
<path d="M5.55 13.769V23.249H2.58V2.00902H15.84V4.61902H5.55V11.219H15.18V13.769H5.55ZM21.8034 9.02902V23.249H18.9834V9.02902H21.8034ZM22.2834 3.89902C22.2834 4.39902 22.0934 4.82902 21.7134 5.18902C21.3534 5.52902 20.9134 5.69902 20.3934 5.69902C19.8734 5.69902 19.4334 5.52902 19.0734 5.18902C18.7134 4.82902 18.5334 4.39902 18.5334 3.89902C18.5334 3.39902 18.7134 2.96902 19.0734 2.60902C19.4334 2.24902 19.8734 2.06902 20.3934 2.06902C20.9134 2.06902 21.3534 2.24902 21.7134 2.60902C22.0934 2.94902 22.2834 3.37902 22.2834 3.89902ZM26.5971 9.02902H29.2671C29.3471 9.98902 29.3871 10.769 29.3871 11.369H29.4771C29.8371 10.589 30.4471 9.93902 31.3071 9.41902C32.1671 8.89902 33.0971 8.63902 34.0971 8.63902C35.8371 8.63902 37.1571 9.17902 38.0571 10.259C38.9571 11.339 39.4071 12.729 39.4071 14.429V23.249H36.5871V15.359C36.5871 12.459 35.5071 11.009 33.3471 11.009C32.2271 11.009 31.3071 11.439 30.5871 12.299C29.8871 13.159 29.5371 14.289 29.5371 15.689V23.249H26.7171V12.089C26.7171 10.869 26.6771 9.84902 26.5971 9.02902Z" fill="#4277FF"/>
<path d="M47.058 0.569022V15.209H47.148L53.118 9.02902H56.898L50.238 15.479L57.468 23.249H53.568L47.148 15.869H47.058V23.249H44.238V0.569022H47.058ZM61.421 14.879H69.881C69.841 13.699 69.481 12.739 68.801 11.999C68.121 11.239 67.151 10.859 65.891 10.859C64.691 10.859 63.671 11.249 62.831 12.029C61.991 12.809 61.521 13.759 61.421 14.879ZM72.731 16.019C72.731 16.439 72.721 16.759 72.701 16.979H61.421C61.461 18.199 61.931 19.229 62.831 20.069C63.731 20.889 64.801 21.299 66.041 21.299C67.821 21.299 69.201 20.579 70.181 19.139L72.161 20.729C70.661 22.669 68.621 23.639 66.041 23.639C63.861 23.639 62.061 22.949 60.641 21.569C59.241 20.189 58.541 18.389 58.541 16.169C58.541 13.969 59.241 12.169 60.641 10.769C62.041 9.34902 63.791 8.63902 65.891 8.63902C67.991 8.63902 69.651 9.30902 70.871 10.649C72.111 11.969 72.731 13.759 72.731 16.019ZM78.6183 14.879H87.0783C87.0383 13.699 86.6783 12.739 85.9983 11.999C85.3183 11.239 84.3483 10.859 83.0883 10.859C81.8883 10.859 80.8683 11.249 80.0283 12.029C79.1883 12.809 78.7183 13.759 78.6183 14.879ZM89.9283 16.019C89.9283 16.439 89.9183 16.759 89.8983 16.979H78.6183C78.6583 18.199 79.1283 19.229 80.0283 20.069C80.9283 20.889 81.9983 21.299 83.2383 21.299C85.0183 21.299 86.3983 20.579 87.3783 19.139L89.3583 20.729C87.8583 22.669 85.8183 23.639 83.2383 23.639C81.0583 23.639 79.2583 22.949 77.8383 21.569C76.4383 20.189 75.7383 18.389 75.7383 16.169C75.7383 13.969 76.4383 12.169 77.8383 10.769C79.2383 9.34902 80.9883 8.63902 83.0883 8.63902C85.1883 8.63902 86.8483 9.30902 88.0683 10.649C89.3083 11.969 89.9283 13.759 89.9283 16.019ZM96.6855 21.119V30.449H93.8655V9.02902H96.6255V11.249H96.7155C97.1955 10.469 97.8855 9.83902 98.7855 9.35902C99.6855 8.87902 100.706 8.63902 101.846 8.63902C103.926 8.63902 105.626 9.35902 106.946 10.799C108.286 12.219 108.956 13.989 108.956 16.109C108.956 18.249 108.296 20.039 106.976 21.479C105.656 22.919 103.926 23.639 101.786 23.639C100.766 23.639 99.8055 23.419 98.9055 22.979C98.0055 22.519 97.2955 21.899 96.7755 21.119H96.6855ZM104.786 19.769C105.626 18.749 106.046 17.529 106.046 16.109C106.046 14.689 105.626 13.479 104.786 12.479C103.946 11.479 102.786 10.979 101.306 10.979C99.9055 10.979 98.7555 11.489 97.8555 12.509C96.9555 13.529 96.5055 14.739 96.5055 16.139C96.5055 17.539 96.9555 18.749 97.8555 19.769C98.7555 20.769 99.9055 21.269 101.306 21.269C102.786 21.269 103.946 20.769 104.786 19.769ZM114.829 14.879H123.289C123.249 13.699 122.889 12.739 122.209 11.999C121.529 11.239 120.559 10.859 119.299 10.859C118.099 10.859 117.079 11.249 116.239 12.029C115.399 12.809 114.929 13.759 114.829 14.879ZM126.139 16.019C126.139 16.439 126.129 16.759 126.109 16.979H114.829C114.869 18.199 115.339 19.229 116.239 20.069C117.139 20.889 118.209 21.299 119.449 21.299C121.229 21.299 122.609 20.579 123.589 19.139L125.569 20.729C124.069 22.669 122.029 23.639 119.449 23.639C117.269 23.639 115.469 22.949 114.049 21.569C112.649 20.189 111.949 18.389 111.949 16.169C111.949 13.969 112.649 12.169 114.049 10.769C115.449 9.34902 117.199 8.63902 119.299 8.63902C121.399 8.63902 123.059 9.30902 124.279 10.649C125.519 11.969 126.139 13.759 126.139 16.019ZM130.076 12.089C130.076 10.869 130.036 9.84902 129.956 9.02902H132.626C132.706 9.98902 132.746 10.789 132.746 11.429H132.836C133.236 10.589 133.826 9.91902 134.606 9.41902C135.386 8.89902 136.246 8.63902 137.186 8.63902C137.626 8.63902 137.996 8.67902 138.296 8.75902L138.176 11.369C137.776 11.269 137.346 11.219 136.886 11.219C135.606 11.219 134.616 11.659 133.916 12.539C133.236 13.419 132.896 14.499 132.896 15.779V23.249H130.076V12.089Z" fill="#FE7D34"/>
<path d="M4.9525 38.9189C3.9605 38.9189 3.139 38.5934 2.488 37.9424C1.8432 37.2852 1.5208 36.4575 1.5208 35.4593C1.5208 34.4611 1.8463 33.6365 2.4973 32.9855C3.1483 32.3283 3.9667 31.9997 4.9525 31.9997C5.4361 31.9997 5.8887 32.0958 6.3103 32.288C6.7381 32.474 7.0667 32.7251 7.2961 33.0413L6.7381 33.4505C6.5831 33.2149 6.3444 33.0134 6.022 32.846C5.7058 32.6724 5.3524 32.5856 4.9618 32.5856C4.1372 32.5856 3.4738 32.8646 2.9716 33.4226C2.4756 33.9806 2.2276 34.6595 2.2276 35.4593C2.2276 36.2591 2.4787 36.938 2.9809 37.496C3.4831 38.054 4.1434 38.333 4.9618 38.333C5.8174 38.333 6.4622 38.0075 6.8962 37.3565L7.417 37.6913C7.1814 38.0509 6.8497 38.3454 6.4219 38.5748C6.0003 38.8042 5.5105 38.9189 4.9525 38.9189ZM8.53046 38.7515V34.3991H9.16286V37.8773H9.17216L11.7483 34.3991H12.4365V38.7515H11.8134V35.2361H11.7948L9.21866 38.7515H8.53046ZM17.771 38.1098C17.3618 38.612 16.81 38.8631 16.1156 38.8631C15.4212 38.8631 14.8601 38.6492 14.4323 38.2214C14.0045 37.7874 13.7906 37.2387 13.7906 36.5753C13.7906 35.9119 14.0045 35.3663 14.4323 34.9385C14.8601 34.5045 15.4212 34.2875 16.1156 34.2875C16.4256 34.2875 16.7263 34.3526 17.0177 34.4828C17.3153 34.613 17.554 34.799 17.7338 35.0408L17.2409 35.3942C17.1355 35.2268 16.9805 35.0904 16.7759 34.985C16.5775 34.8734 16.3605 34.8176 16.1249 34.8176C15.6289 34.8176 15.2259 34.985 14.9159 35.3198C14.6121 35.6484 14.4602 36.0669 14.4602 36.5753C14.4602 37.0775 14.6121 37.496 14.9159 37.8308C15.2197 38.1594 15.6196 38.3237 16.1156 38.3237C16.6178 38.3237 17.0115 38.1346 17.2967 37.7564L17.771 38.1098ZM19.841 38.7515V34.9292H18.2693V34.3991H22.0451V34.9292H20.4734V38.7515H19.841ZM24.8962 38.8631C24.2514 38.8631 23.7151 38.6461 23.2873 38.2121C22.8595 37.7781 22.6456 37.2325 22.6456 36.5753C22.6456 35.9243 22.8564 35.3818 23.278 34.9478C23.6996 34.5076 24.2204 34.2875 24.8404 34.2875C25.4976 34.2875 26.0091 34.4921 26.3749 34.9013C26.7407 35.3043 26.9236 35.8189 26.9236 36.4451C26.9236 36.5691 26.9205 36.6683 26.9143 36.7427H23.3059C23.3183 37.1829 23.4764 37.558 23.7802 37.868C24.084 38.1718 24.456 38.3237 24.8962 38.3237C25.2 38.3237 25.4759 38.2524 25.7239 38.1098C25.9719 37.961 26.161 37.7812 26.2912 37.5704L26.7655 37.9424C26.2819 38.5562 25.6588 38.8631 24.8962 38.8631ZM23.3152 36.2405H26.2819C26.2633 35.8189 26.1269 35.4779 25.8727 35.2175C25.6247 34.9509 25.2806 34.8176 24.8404 34.8176C24.4312 34.8176 24.0809 34.9602 23.7895 35.2454C23.5043 35.5244 23.3462 35.8561 23.3152 36.2405ZM28.2839 38.7515V34.3991H29.1953L30.8042 37.8122H30.8135L32.4131 34.3991H33.3245V38.7515H32.6921V35.1524H32.6735L30.9623 38.7515H30.6368L28.9256 35.1524H28.9163V38.7515H28.2839ZM36.1766 38.8631C35.786 38.8631 35.4357 38.7546 35.1257 38.5376C34.8219 38.3144 34.67 37.9827 34.67 37.5425C34.67 37.3255 34.7072 37.1364 34.7816 36.9752C34.856 36.8078 34.9676 36.6714 35.1164 36.566C35.2652 36.4606 35.4264 36.3769 35.6 36.3149C35.7736 36.2467 35.9875 36.1971 36.2417 36.1661C36.4959 36.1289 36.7315 36.1072 36.9485 36.101C37.1717 36.0886 37.4352 36.0824 37.739 36.0824V35.9429C37.739 35.1927 37.3515 34.8176 36.5765 34.8176C36.0557 34.8176 35.6248 34.9881 35.2838 35.3291L34.9304 34.9106C35.3458 34.4952 35.9162 34.2875 36.6416 34.2875C37.1376 34.2875 37.5437 34.4239 37.8599 34.6967C38.1761 34.9695 38.3342 35.3601 38.3342 35.8685V37.775C38.3342 38.1656 38.359 38.4911 38.4086 38.7515H37.8413C37.7979 38.5035 37.7762 38.2679 37.7762 38.0447H37.7576C37.3794 38.5903 36.8524 38.8631 36.1766 38.8631ZM36.344 38.3423C36.7718 38.3423 37.1097 38.2028 37.3577 37.9238C37.6119 37.6448 37.739 37.3038 37.739 36.9008V36.5753H37.553C37.2554 36.5753 36.9888 36.5877 36.7532 36.6125C36.5238 36.6311 36.2913 36.6714 36.0557 36.7334C35.8263 36.7954 35.6465 36.8915 35.5163 37.0217C35.3861 37.1519 35.321 37.3162 35.321 37.5146C35.321 37.7998 35.4202 38.0106 35.6186 38.147C35.817 38.2772 36.0588 38.3423 36.344 38.3423ZM42.307 40.9835C42.1148 40.9835 41.9257 40.9649 41.7397 40.9277L41.8048 40.3511C41.9536 40.4007 42.1086 40.4255 42.2698 40.4255C42.4744 40.4255 42.6387 40.3604 42.7627 40.2302C42.8929 40.1062 43.0076 39.914 43.1068 39.6536L43.4602 38.7422L41.6002 34.3991H42.307L43.7857 38.0726H43.8043L45.1528 34.3991H45.841L43.6741 39.8768C43.5315 40.2426 43.3548 40.5185 43.144 40.7045C42.9394 40.8905 42.6604 40.9835 42.307 40.9835ZM46.8294 38.7515V34.3991H50.5308V38.7515H49.8984V34.9292H47.4618V38.7515H46.8294ZM52.2059 40.9835V34.3991H52.8383V35.1524H52.8662C53.0398 34.8796 53.2754 34.6688 53.573 34.52C53.8706 34.365 54.1806 34.2875 54.503 34.2875C55.1726 34.2875 55.7151 34.5076 56.1305 34.9478C56.5459 35.3818 56.7536 35.9243 56.7536 36.5753C56.7536 37.2263 56.5459 37.7719 56.1305 38.2121C55.7151 38.6461 55.1726 38.8631 54.503 38.8631C54.1868 38.8631 53.8799 38.7887 53.5823 38.6399C53.2847 38.4911 53.046 38.2834 52.8662 38.0168H52.8383V40.9835H52.2059ZM54.4379 38.3237C54.9463 38.3237 55.3462 38.1594 55.6376 37.8308C55.9352 37.496 56.084 37.0775 56.084 36.5753C56.084 36.0731 55.9352 35.6546 55.6376 35.3198C55.3462 34.985 54.9463 34.8176 54.4379 34.8176C53.9543 34.8176 53.5544 34.985 53.2382 35.3198C52.922 35.6546 52.7639 36.0731 52.7639 36.5753C52.7639 37.0775 52.922 37.496 53.2382 37.8308C53.5544 38.1594 53.9543 38.3237 54.4379 38.3237ZM59.2904 38.8631C58.8998 38.8631 58.5495 38.7546 58.2395 38.5376C57.9357 38.3144 57.7838 37.9827 57.7838 37.5425C57.7838 37.3255 57.821 37.1364 57.8954 36.9752C57.9698 36.8078 58.0814 36.6714 58.2302 36.566C58.379 36.4606 58.5402 36.3769 58.7138 36.3149C58.8874 36.2467 59.1013 36.1971 59.3555 36.1661C59.6097 36.1289 59.8453 36.1072 60.0623 36.101C60.2855 36.0886 60.549 36.0824 60.8528 36.0824V35.9429C60.8528 35.1927 60.4653 34.8176 59.6903 34.8176C59.1695 34.8176 58.7386 34.9881 58.3976 35.3291L58.0442 34.9106C58.4596 34.4952 59.03 34.2875 59.7554 34.2875C60.2514 34.2875 60.6575 34.4239 60.9737 34.6967C61.2899 34.9695 61.448 35.3601 61.448 35.8685V37.775C61.448 38.1656 61.4728 38.4911 61.5224 38.7515H60.9551C60.9117 38.5035 60.89 38.2679 60.89 38.0447H60.8714C60.4932 38.5903 59.9662 38.8631 59.2904 38.8631ZM59.4578 38.3423C59.8856 38.3423 60.2235 38.2028 60.4715 37.9238C60.7257 37.6448 60.8528 37.3038 60.8528 36.9008V36.5753H60.6668C60.3692 36.5753 60.1026 36.5877 59.867 36.6125C59.6376 36.6311 59.4051 36.6714 59.1695 36.7334C58.9401 36.7954 58.7603 36.8915 58.6301 37.0217C58.4999 37.1519 58.4348 37.3162 58.4348 37.5146C58.4348 37.7998 58.534 38.0106 58.7324 38.147C58.9308 38.2772 59.1726 38.3423 59.4578 38.3423ZM63.0771 38.7515V34.3991H65.1138C65.5106 34.3991 65.8423 34.4859 66.1089 34.6595C66.3817 34.8331 66.5181 35.1183 66.5181 35.5151C66.5181 35.7445 66.4468 35.946 66.3042 36.1196C66.1678 36.287 65.9849 36.3955 65.7555 36.4451V36.4544C66.0469 36.4854 66.2825 36.597 66.4623 36.7892C66.6421 36.9814 66.732 37.2325 66.732 37.5425C66.732 37.9083 66.5863 38.2028 66.2949 38.426C66.0035 38.643 65.6098 38.7515 65.1138 38.7515H63.0771ZM63.7095 38.2121H65.0394C65.3432 38.2121 65.5912 38.1532 65.7834 38.0354C65.9818 37.9176 66.081 37.7347 66.081 37.4867C66.081 36.9969 65.7586 36.752 65.1138 36.752H63.7095V38.2121ZM63.7095 36.2312H65.0952C65.3122 36.2312 65.4982 36.1785 65.6532 36.0731C65.8144 35.9677 65.895 35.8034 65.895 35.5802C65.895 35.14 65.5912 34.9199 64.9836 34.9199H63.7095V36.2312ZM67.8114 38.798C67.6316 38.798 67.4735 38.7794 67.3371 38.7422L67.4115 38.1935C67.5045 38.2245 67.6037 38.24 67.7091 38.24C68.0501 38.24 68.3012 38.0602 68.4624 37.7006C68.6298 37.3348 68.7135 36.7241 68.7135 35.8685V34.3991H71.829V38.7515H71.1966V34.9292H69.3273V36.0917C69.3273 36.9659 69.2095 37.6355 68.9739 38.1005C68.7445 38.5655 68.357 38.798 67.8114 38.798ZM75.4377 38.8631C74.7929 38.8631 74.2566 38.6461 73.8288 38.2121C73.401 37.7781 73.1871 37.2325 73.1871 36.5753C73.1871 35.9243 73.3979 35.3818 73.8195 34.9478C74.2411 34.5076 74.7619 34.2875 75.3819 34.2875C76.0391 34.2875 76.5506 34.4921 76.9164 34.9013C77.2822 35.3043 77.4651 35.8189 77.4651 36.4451C77.4651 36.5691 77.462 36.6683 77.4558 36.7427H73.8474C73.8598 37.1829 74.0179 37.558 74.3217 37.868C74.6255 38.1718 74.9975 38.3237 75.4377 38.3237C75.7415 38.3237 76.0174 38.2524 76.2654 38.1098C76.5134 37.961 76.7025 37.7812 76.8327 37.5704L77.307 37.9424C76.8234 38.5562 76.2003 38.8631 75.4377 38.8631ZM73.8567 36.2405H76.8234C76.8048 35.8189 76.6684 35.4779 76.4142 35.2175C76.1662 34.9509 75.8221 34.8176 75.3819 34.8176C74.9727 34.8176 74.6224 34.9602 74.331 35.2454C74.0458 35.5244 73.8877 35.8561 73.8567 36.2405ZM78.8254 38.7515V34.3991H79.4578V36.2219H81.9595V34.3991H82.5919V38.7515H81.9595V36.752H79.4578V38.7515H78.8254ZM84.2655 38.7515V34.3991H84.8979V37.8773H84.9072L87.4833 34.3991H88.1715V38.7515H87.5484V35.2361H87.5298L84.9537 38.7515H84.2655ZM89.5629 38.7515L90.7254 36.9845C90.3906 36.9101 90.1271 36.7675 89.9349 36.5567C89.7489 36.3397 89.6559 36.0607 89.6559 35.7197C89.6559 35.2981 89.8047 34.9726 90.1023 34.7432C90.3999 34.5138 90.8029 34.3991 91.3113 34.3991H93.1806V38.7515H92.5482V37.0403H91.4043L90.3348 38.7515H89.5629ZM91.3485 36.5009H92.5482V34.9292H91.3485C90.6479 34.9292 90.2976 35.1927 90.2976 35.7197C90.2976 36.2405 90.6479 36.5009 91.3485 36.5009ZM98.3613 38.8631C97.9707 38.8631 97.6204 38.7546 97.3104 38.5376C97.0066 38.3144 96.8547 37.9827 96.8547 37.5425C96.8547 37.3255 96.8919 37.1364 96.9663 36.9752C97.0407 36.8078 97.1523 36.6714 97.3011 36.566C97.4499 36.4606 97.6111 36.3769 97.7847 36.3149C97.9583 36.2467 98.1722 36.1971 98.4264 36.1661C98.6806 36.1289 98.9162 36.1072 99.1332 36.101C99.3564 36.0886 99.6199 36.0824 99.9237 36.0824V35.9429C99.9237 35.1927 99.5362 34.8176 98.7612 34.8176C98.2404 34.8176 97.8095 34.9881 97.4685 35.3291L97.1151 34.9106C97.5305 34.4952 98.1009 34.2875 98.8263 34.2875C99.3223 34.2875 99.7284 34.4239 100.045 34.6967C100.361 34.9695 100.519 35.3601 100.519 35.8685V37.775C100.519 38.1656 100.544 38.4911 100.593 38.7515H100.026C99.9826 38.5035 99.9609 38.2679 99.9609 38.0447H99.9423C99.5641 38.5903 99.0371 38.8631 98.3613 38.8631ZM98.5287 38.3423C98.9565 38.3423 99.2944 38.2028 99.5424 37.9238C99.7966 37.6448 99.9237 37.3038 99.9237 36.9008V36.5753H99.7377C99.4401 36.5753 99.1735 36.5877 98.9379 36.6125C98.7085 36.6311 98.476 36.6714 98.2404 36.7334C98.011 36.7954 97.8312 36.8915 97.701 37.0217C97.5708 37.1519 97.5057 37.3162 97.5057 37.5146C97.5057 37.7998 97.6049 38.0106 97.8033 38.147C98.0017 38.2772 98.2435 38.3423 98.5287 38.3423ZM102.167 38.7515V34.3991H102.799V36.4544H102.827L104.836 34.3991H105.747L103.552 36.4823L105.97 38.7515H105.04L102.827 36.5567H102.799V38.7515H102.167ZM107.81 38.7515V34.9292H106.238V34.3991H110.014V34.9292H108.442V38.7515H107.81ZM111.039 38.7515V34.3991H111.672V37.8773H111.681L114.257 34.3991H114.945V38.7515H114.322V35.2361H114.304L111.728 38.7515H111.039ZM116.616 38.7515V34.3991H118.652C119.049 34.3991 119.381 34.4859 119.648 34.6595C119.92 34.8331 120.057 35.1183 120.057 35.5151C120.057 35.7445 119.985 35.946 119.843 36.1196C119.706 36.287 119.524 36.3955 119.294 36.4451V36.4544C119.586 36.4854 119.821 36.597 120.001 36.7892C120.181 36.9814 120.271 37.2325 120.271 37.5425C120.271 37.9083 120.125 38.2028 119.834 38.426C119.542 38.643 119.148 38.7515 118.652 38.7515H116.616ZM117.248 38.2121H118.578C118.882 38.2121 119.13 38.1532 119.322 38.0354C119.52 37.9176 119.62 37.7347 119.62 37.4867C119.62 36.9969 119.297 36.752 118.652 36.752H117.248V38.2121ZM117.248 36.2312H118.634C118.851 36.2312 119.037 36.1785 119.192 36.0731C119.353 35.9677 119.434 35.8034 119.434 35.5802C119.434 35.14 119.13 34.9199 118.522 34.9199H117.248V36.2312ZM122.81 38.8631C122.419 38.8631 122.069 38.7546 121.759 38.5376C121.455 38.3144 121.303 37.9827 121.303 37.5425C121.303 37.3255 121.341 37.1364 121.415 36.9752C121.489 36.8078 121.601 36.6714 121.75 36.566C121.899 36.4606 122.06 36.3769 122.233 36.3149C122.407 36.2467 122.621 36.1971 122.875 36.1661C123.129 36.1289 123.365 36.1072 123.582 36.101C123.805 36.0886 124.069 36.0824 124.372 36.0824V35.9429C124.372 35.1927 123.985 34.8176 123.21 34.8176C122.689 34.8176 122.258 34.9881 121.917 35.3291L121.564 34.9106C121.979 34.4952 122.55 34.2875 123.275 34.2875C123.771 34.2875 124.177 34.4239 124.493 34.6967C124.81 34.9695 124.968 35.3601 124.968 35.8685V37.775C124.968 38.1656 124.992 38.4911 125.042 38.7515H124.475C124.431 38.5035 124.41 38.2679 124.41 38.0447H124.391C124.013 38.5903 123.486 38.8631 122.81 38.8631ZM122.977 38.3423C123.405 38.3423 123.743 38.2028 123.991 37.9238C124.245 37.6448 124.372 37.3038 124.372 36.9008V36.5753H124.186C123.889 36.5753 123.622 36.5877 123.387 36.6125C123.157 36.6311 122.925 36.6714 122.689 36.7334C122.46 36.7954 122.28 36.8915 122.15 37.0217C122.02 37.1519 121.954 37.3162 121.954 37.5146C121.954 37.7998 122.054 38.0106 122.252 38.147C122.45 38.2772 122.692 38.3423 122.977 38.3423ZM126.597 38.7515V34.3991H127.508L129.117 37.8122H129.126L130.726 34.3991H131.637V38.7515H131.005V35.1524H130.986L129.275 38.7515H128.95L127.239 35.1524H127.229V38.7515H126.597ZM133.308 38.7515V34.3991H133.941V37.8773H133.95L136.526 34.3991H137.214V38.7515H136.591V35.2361H136.573L133.997 38.7515H133.308Z" fill="#191919"/>
</svg>
