<svg width="21" height="20" viewBox="0 0 21 20" fill="none" xmlns="http://www.w3.org/2000/svg">
<path fill-rule="evenodd" clip-rule="evenodd" d="M10.7461 18C15.1644 18 18.7461 14.4183 18.7461 10C18.7461 5.58172 15.1644 2 10.7461 2C6.32782 2 2.74609 5.58172 2.74609 10C2.74609 14.4183 6.32782 18 10.7461 18ZM10.7461 20C16.2689 20 20.7461 15.5228 20.7461 10C20.7461 4.47715 16.2689 0 10.7461 0C5.22325 0 0.746094 4.47715 0.746094 10C0.746094 15.5228 5.22325 20 10.7461 20Z" fill="#868686"/>
<path d="M9.74609 5H11.7461V7H9.74609V5Z" fill="#868686"/>
<path d="M9.74609 9H11.7461V15H9.74609V9Z" fill="#868686"/>
</svg>
