<svg width="20" height="10" viewBox="0 0 20 10" fill="none" xmlns="http://www.w3.org/2000/svg">
<path d="M10.5413 3.33333C9.85801 1.39167 8.00801 0 5.83301 0C3.07467 0 0.833008 2.24167 0.833008 5C0.833008 7.75833 3.07467 10 5.83301 10C8.00801 10 9.85801 8.60833 10.5413 6.66667H14.1663V10H17.4997V6.66667H19.1663V3.33333H10.5413ZM5.83301 6.66667C4.91634 6.66667 4.16634 5.91667 4.16634 5C4.16634 4.08333 4.91634 3.33333 5.83301 3.33333C6.74968 3.33333 7.49968 4.08333 7.49968 5C7.49968 5.91667 6.74968 6.66667 5.83301 6.66667Z" fill="#EDEDED"/>
</svg>
