<svg width="20" height="24" viewBox="0 0 20 24" fill="none" xmlns="http://www.w3.org/2000/svg">
<path d="M6.68377 24C3.11185 23.9794 0.157227 16.6879 0.157227 12.9745C0.157227 6.90873 4.70762 5.58077 6.4613 5.58077C7.25162 5.58077 8.09551 5.89112 8.83984 6.16577C9.36034 6.35734 9.89865 6.55511 10.198 6.55511C10.3772 6.55511 10.7995 6.38688 11.1724 6.23927C11.9675 5.92272 12.957 5.5293 14.1091 5.5293C14.1112 5.5293 14.114 5.5293 14.116 5.5293C14.9763 5.5293 17.5849 5.71811 19.1532 8.0733L19.5206 8.62534L18.9919 9.0243C18.2366 9.5942 16.8585 10.6338 16.8585 12.6931C16.8585 15.132 18.4192 16.07 19.169 16.5211C19.5 16.7202 19.8426 16.9255 19.8426 17.3746C19.8426 17.6678 17.5025 23.9636 14.1043 23.9636C13.2728 23.9636 12.685 23.7137 12.1666 23.4933C11.642 23.2701 11.1895 23.0779 10.4417 23.0779C10.0627 23.0779 9.58341 23.2571 9.07599 23.4473C8.38257 23.7061 7.59769 24 6.70712 24H6.68377Z" fill="#4277FF"/>
<path d="M14.4689 0C14.5574 3.19106 12.2753 5.40487 9.99588 5.26603C9.62027 2.71945 12.275 0 14.4689 0Z" fill="#4277FF"/>
</svg>
