<svg width="22" height="24" viewBox="0 0 22 24" fill="none" xmlns="http://www.w3.org/2000/svg">
<path d="M3.5984 0.305861C2.98011 -0.0663303 2.24323 -0.0996118 1.60056 0.210235L12.3758 11.0085L15.899 7.4689L3.5984 0.305861ZM0.610554 1.20962C0.474615 1.49743 0.401489 1.81759 0.401489 2.14713V21.8995C0.401489 22.2304 0.475084 22.5459 0.612429 22.8276L11.3835 12.0055L0.610554 1.20962ZM12.3773 13.0011L1.61936 23.8102C1.90483 23.9423 2.20858 24 2.51187 24C2.8864 24 3.26 23.9105 3.59844 23.707L15.9014 16.5332L12.3773 13.0011ZM20.5838 10.1971C20.5795 10.1942 20.5749 10.1914 20.5706 10.1891L17.1553 8.20016L13.3692 12.0041L17.1576 15.8005C17.1576 15.8005 20.5795 13.8055 20.5838 13.8032C21.2189 13.4174 21.5981 12.7433 21.5981 11.9999C21.5981 11.2564 21.2189 10.5824 20.5838 10.1971Z" fill="#4277FF"/>
</svg>
