<svg width="20" height="20" viewBox="0 0 20 20" fill="none" xmlns="http://www.w3.org/2000/svg">
<path d="M16.8862 10.9359C16.9222 10.6359 16.9462 10.3239 16.9462 9.9999C16.9462 9.6759 16.9222 9.3639 16.8742 9.0639L18.9022 7.4799C19.0822 7.3359 19.1302 7.0719 19.0222 6.8679L17.1022 3.5439C16.9822 3.3279 16.7302 3.2559 16.5142 3.3279L14.1262 4.2879C13.6222 3.9039 13.0942 3.5919 12.5062 3.3519L12.1462 0.807902C12.1102 0.567902 11.9062 0.399902 11.6662 0.399902H7.8262C7.5862 0.399902 7.3942 0.567902 7.3582 0.807902L6.9982 3.3519C6.4102 3.5919 5.8702 3.9159 5.3782 4.2879L2.9902 3.3279C2.7742 3.2439 2.5222 3.3279 2.4022 3.5439L0.4822 6.8679C0.3622 7.0839 0.410201 7.3359 0.602201 7.4799L2.6302 9.0639C2.5822 9.3639 2.5462 9.6879 2.5462 9.9999C2.5462 10.3119 2.5702 10.6359 2.6182 10.9359L0.5902 12.5199C0.4102 12.6639 0.3622 12.9279 0.4702 13.1319L2.3902 16.4559C2.5102 16.6719 2.7622 16.7439 2.9782 16.6719L5.3662 15.7119C5.8702 16.0959 6.3982 16.4079 6.9862 16.6479L7.3462 19.1919C7.3942 19.4319 7.5862 19.5999 7.8262 19.5999H11.6662C11.9062 19.5999 12.1102 19.4319 12.1342 19.1919L12.4942 16.6479C13.0822 16.4079 13.6222 16.0839 14.1142 15.7119L16.5022 16.6719C16.7182 16.7559 16.9702 16.6719 17.0902 16.4559L19.0102 13.1319C19.1302 12.9159 19.0822 12.6639 18.8902 12.5199L16.8862 10.9359ZM9.7462 13.5999C7.7662 13.5999 6.1462 11.9799 6.1462 9.9999C6.1462 8.0199 7.7662 6.3999 9.7462 6.3999C11.7262 6.3999 13.3462 8.0199 13.3462 9.9999C13.3462 11.9799 11.7262 13.5999 9.7462 13.5999Z" fill="#868686"/>
</svg>
